<svg id="Layer_1" data-name="Layer 1" xmlns="http://www.w3.org/2000/svg" viewBox="0 0 29.9 79.98"><defs><style>.cls-1{fill:#5f5f5f;}</style></defs><title>handgun</title><path class="cls-1" d="M4.52,79.86h0c2.2-.63,5.47-2.71,7-3.71l.86-.53a.6.6,0,0,0,.22-.16v0a.91.91,0,0,0,.32.81.43.43,0,0,0,.44,0h0c3-1.71,3.74-2.06,5.28-1.61,1.29.37,1.55,2.56,1.65,3.38,0,.15,0,.24,0,.3a.65.65,0,0,0,.48.45,1,1,0,0,0,.95-.38,1.82,1.82,0,0,0,.43-1.21.73.73,0,0,0,0-.29s0-.1,0-.15a2.49,2.49,0,0,0,.36-1.23A1.77,1.77,0,0,1,24,74.06a.29.29,0,0,0,.1,0,9.88,9.88,0,0,0,1.78-.28c.83.16,1.51,1.38,1.88,2.06a1.8,1.8,0,0,0,.29.46.22.22,0,0,0,.22,0,.84.84,0,0,0,.34-.73.86.86,0,0,0-.28-.65,2.19,2.19,0,0,1-.63-1.59.94.94,0,0,1,0-.26l.3-.14.06,0v-.15a5.82,5.82,0,0,0,.9-.54V70.36a.41.41,0,0,0,.3-.1.4.4,0,0,0,.17-.19c.22-.35.41-.35.41-.35v-.35a.6.6,0,0,1-.38-.23.83.83,0,0,0-.2-.22,1.08,1.08,0,0,0-.3-.17V59.69h-.17V34.93c.07-.36.32-.51.47-.77a1.11,1.11,0,0,0,.13-.29.83.83,0,0,0-.13-.56,1.8,1.8,0,0,0-.47-.54v-.3c0-.2-.26-.32-.56-.39h0a.58.58,0,0,0-.44-.53V31.5h0c-.05-.17-.53-.29-1.13-.29s-1,.11-1.13.27h-.1a5.64,5.64,0,0,1-2.14.27v0a.16.16,0,0,1-.09,0c-1.18-.09-1.41.22-1.41.22v.21c-.47,0-.78.09-.78.41v8.65h-.25a.69.69,0,0,0-.42.59V50a3.74,3.74,0,0,1-.07.77,2.74,2.74,0,0,1-.35.87.49.49,0,0,1-.07.11h0a2.3,2.3,0,0,1-2,1c-2,0-3.37,1.16-3.37,2.87V60c0,1.35-.12,2.75-1.54,3.72S.9,67.72.8,67.74l-.12,0V68a3.74,3.74,0,0,1-.17-.74c0-.17-.36-.23-.36.09s.16.88.2,1.23l-.15.07L1.79,78.77l.08.06a1.24,1.24,0,0,0,.34.88c.37.31,1,.35,2.31.15ZM25.06,32.12ZM18,53.63h0v0A2.37,2.37,0,0,1,20,55.43V58.2a4,4,0,0,1-2.42.71,3,3,0,0,1-2.25-.85V55.69a2.15,2.15,0,0,1,.76-1.48A2.34,2.34,0,0,1,18,53.63Zm5.33-21.49h.49v0h-.49Z" transform="translate(-0.02 -0.01)"/><path class="cls-1" d="M25.53.13h0a34.1,34.1,0,0,0-7.07,3.73,9.47,9.47,0,0,1-.87.53.69.69,0,0,0-.22.16v0A1,1,0,0,0,17,3.71a.45.45,0,0,0-.45,0h0c-3.06,1.72-3.77,2.07-5.31,1.62C10,5,9.71,2.76,9.61,1.93c0-.15,0-.24,0-.3a.65.65,0,0,0-.48-.45,1,1,0,0,0-1,.38,1.82,1.82,0,0,0-.43,1.22.73.73,0,0,0,0,.29c0,.05,0,.1,0,.15a2.49,2.49,0,0,0-.36,1.23A1.78,1.78,0,0,1,5.92,6a.18.18,0,0,0-.1,0A8.48,8.48,0,0,0,4,6.28C3.19,6.12,2.51,4.89,2.14,4.2c-.15-.27-.22-.41-.3-.46a.2.2,0,0,0-.21,0,.83.83,0,0,0-.34.73.87.87,0,0,0,.27.66A2.17,2.17,0,0,1,2.2,6.7a.83.83,0,0,1,0,.25l-.3.15-.06,0v.15a7.74,7.74,0,0,0-.91.54V9.69a.39.39,0,0,0-.3.09.43.43,0,0,0-.17.2c-.22.35-.42.35-.42.35v.35a.56.56,0,0,1,.39.23.7.7,0,0,0,.2.22.87.87,0,0,0,.3.17v9.11h.17v24.9c-.06.37-.32.51-.47.78a1,1,0,0,0-.13.29.83.83,0,0,0,.13.56,2,2,0,0,0,.47.55v.3c0,.19.27.31.57.39h0a.58.58,0,0,0,.44.53v0h0c0,.17.53.29,1.14.29s1-.11,1.13-.27h.11a5.66,5.66,0,0,1,2.15-.27v0l.08,0c1.19.09,1.42-.22,1.42-.22v-.21c.47,0,.79-.1.79-.41V39h.25a.69.69,0,0,0,.42-.6V30.13a3.67,3.67,0,0,1,.07-.77,2.7,2.7,0,0,1,.35-.88l.07-.11h0a2.33,2.33,0,0,1,2-1c2,0,3.38-1.17,3.38-2.89V20.13c0-1.35.12-2.76,1.56-3.73s12.13-4.06,12.23-4.08l.12,0V12.1a3.74,3.74,0,0,1,.17.74.18.18,0,0,0,.36-.08c0-.27-.15-.89-.2-1.24l.16-.08L28.27,1.23l-.08-.06a1.17,1.17,0,0,0-.34-.89c-.36-.31-1-.35-2.32-.15Zm-20.65,48ZM12,26.51h0v0A2.36,2.36,0,0,1,9.93,24.7V21.92a3.84,3.84,0,0,1,2.42-.72,3.07,3.07,0,0,1,2.27.85v2.38a2.15,2.15,0,0,1-.76,1.49,2.37,2.37,0,0,1-1.87.59ZM6.63,48.12h-.5v0h.5Z" transform="translate(-0.02 -0.01)"/></svg>