<svg id="Layer_1" data-name="Layer 1" xmlns="http://www.w3.org/2000/svg" viewBox="0 0 1000 305.07"><defs><style>.cls-1{fill:#2f414f;}</style></defs><title>Logo</title><path class="cls-1" d="M31.51,65.11V203.66H0V31.78q0-9.12,4.56-14.46c3-3.55,7.16-5.34,12.37-5.34a16.64,16.64,0,0,1,7,1.57,25.44,25.44,0,0,1,7,5.2l133.6,132.56V12.77H196.1V186.21q0,9.38-4.55,14.59A15,15,0,0,1,179.7,206q-8.08,0-15.11-7Z" transform="translate(0 84.28)"/><path class="cls-1" d="M230,203.66V14.33H263V203.66Z" transform="translate(0 84.28)"/><path class="cls-1" d="M328.4,65.11V203.66H296.89V31.78q0-9.12,4.55-14.46c3-3.55,7.17-5.34,12.37-5.34a16.68,16.68,0,0,1,7,1.57,25.59,25.59,0,0,1,7,5.2l133.6,132.56V12.77H493V186.21q0,9.38-4.56,14.59A15,15,0,0,1,476.58,206q-8.07,0-15.1-7Z" transform="translate(0 84.28)"/><path class="cls-1" d="M524.76,203.66V14.33H663.31a94.54,94.54,0,0,1,25.13,3.12,56.83,56.83,0,0,1,19.4,9.25,41.48,41.48,0,0,1,12.5,15.36,48.66,48.66,0,0,1,4.43,21.23,54.45,54.45,0,0,1-2.08,15.88A37.27,37.27,0,0,1,717,90.76a35.61,35.61,0,0,1-8.47,8.08,36.6,36.6,0,0,1-10,4.81,42.61,42.61,0,0,1,21.35,15.11q8.34,10.93,8.33,27.61a62.08,62.08,0,0,1-4.29,23.57A51.6,51.6,0,0,1,711.62,188a54,54,0,0,1-19.27,11.59,74.57,74.57,0,0,1-25.14,4Zm57-82.3V93.5h81.78q14.05,0,20.83-5.21t6.77-17.71q0-7.55-2.86-12.11a18.77,18.77,0,0,0-8.2-7,40.37,40.37,0,0,0-12.76-3.26,159.44,159.44,0,0,0-16.54-.78h-93V170.85h95.84a96.64,96.64,0,0,0,16.41-1.3,41.7,41.7,0,0,0,13-4.3,22.72,22.72,0,0,0,8.46-7.68,21.37,21.37,0,0,0,3-11.72q0-11.73-7.29-18.11t-21.36-6.38Z" transform="translate(0 84.28)"/><path class="cls-1" d="M843.52,203.66a89.51,89.51,0,0,1-36.59-7.42,90.17,90.17,0,0,1-48.44-50.92,104.48,104.48,0,0,1-6.9-38.28,101.18,101.18,0,0,1,6.9-38,84.37,84.37,0,0,1,19.28-29.3A86.89,86.89,0,0,1,806.93,21a98.62,98.62,0,0,1,36.59-6.64h46.1a101.23,101.23,0,0,1,37.63,6.77,83.83,83.83,0,0,1,48.31,48.31A101,101,0,0,1,982.33,107a104.48,104.48,0,0,1-6.9,38.28,91.91,91.91,0,0,1-19.27,30.61,90.57,90.57,0,0,1-29.3,20.31,91.72,91.72,0,0,1-37.24,7.42Zm46.1-33.07a60.28,60.28,0,0,0,24-4.69,56.56,56.56,0,0,0,31.25-32.56,68,68,0,0,0,4.43-24.74A67.1,67.1,0,0,0,944.83,84a55.67,55.67,0,0,0-31.25-32,61.84,61.84,0,0,0-24-4.56h-46.1A60.16,60.16,0,0,0,820,52a55.77,55.77,0,0,0-18.63,12.63,58.17,58.17,0,0,0-12.24,19.27,66.81,66.81,0,0,0-4.42,24.74,68,68,0,0,0,4.42,24.74A59,59,0,0,0,801.33,153,56.43,56.43,0,0,0,820,165.9a58.64,58.64,0,0,0,23.56,4.69Z" transform="translate(0 84.28)"/><circle class="cls-1" cx="867.72" cy="192.95" r="11.18"/><rect class="cls-1" x="735.26" y="185.33" width="65.78" height="15.42"/><rect class="cls-1" x="934.22" y="185.33" width="65.78" height="15.42"/><rect class="cls-1" x="834.96" y="25.18" width="65.78" height="15.42" transform="translate(900.75 -750.69) rotate(90)"/><rect class="cls-1" x="834.8" y="180.2" width="65.78" height="15.42" transform="translate(1055.6 -595.51) rotate(90)"/><text y="84.28"/></svg>