<svg id="Layer_1" data-name="Layer 1" xmlns="http://www.w3.org/2000/svg" viewBox="0 0 40.19 79.83"><defs><style>.cls-1{fill:#ed2024;}.cls-2{fill:#ffd49c;}</style></defs><title>Reddead</title><rect class="cls-1" x="14.06" y="25.13" width="12.26" height="31.37" rx="6.11"/><circle class="cls-1" cx="20.19" cy="13.44" r="13.44"/><path class="cls-2" d="M6.56,13.61A13.44,13.44,0,1,0,33.18,11H6.82A13.4,13.4,0,0,0,6.56,13.61Z" transform="translate(0.19 -0.17)"/><rect class="cls-1" x="22.56" y="49" width="3.95" height="31.37" rx="1.97" transform="matrix(0.97, -0.23, 0.23, 0.97, -14.03, 7.2)"/><rect class="cls-1" x="18.62" y="15.06" width="2.57" height="40.19" rx="1.28" transform="translate(-15.06 54.89) rotate(-90)"/><rect class="cls-1" x="13.58" y="49" width="3.95" height="31.37" rx="1.97" transform="translate(16 131.04) rotate(-166.71)"/><rect x="15.35" y="11.75" width="0.4" height="7.25" transform="translate(15.61 -6.67) rotate(45)"/><rect x="15.35" y="11.75" width="0.4" height="7.25" transform="translate(37.6 15.07) rotate(135)"/><rect x="24.72" y="11.75" width="0.4" height="7.25" transform="translate(18.35 -13.29) rotate(45)"/><rect x="24.72" y="11.75" width="0.4" height="7.25" transform="translate(53.6 8.44) rotate(135)"/></svg>