<svg id="Layer_1" data-name="Layer 1" xmlns="http://www.w3.org/2000/svg" viewBox="0 0 30.03 79.96"><defs><style>.cls-1{fill:#5f5f5f;}</style></defs><title>rifle</title><path class="cls-1" d="M20.64,79.9c.24-.13.37-.36.46-.8.07-.29.2-.84.36-1.53.69-3.07,2-8.77,2.22-10.25a5.81,5.81,0,0,0,.09-1,3,3,0,0,0-.29-1.3,1.91,1.91,0,0,1-.19-.57,2.37,2.37,0,0,1,0-.41,9.47,9.47,0,0,1,.17-1.51c0-.11.58-1.87.76-2.45a1.6,1.6,0,0,0,.08-.49.44.44,0,0,0-.16-.4l0,0H24c.1-.48.23-1.17.23-1.17l.21-.45a2.53,2.53,0,0,0,1.94-1.26h.15c.35,0,1.76-.74,1.76-1.68V36.06h.07l.21-.22v-.33h0v.94h.85c.21,0,.27,0,.27-.18s-.54-.44-.54-.44V35.3c.22,0,.4-.18.4-.33s-.18-.32-.4-.36v-.08a1.19,1.19,0,0,0,.14-1.25v-.4l.13-.1v-.57c.61-.33,0-.62,0-.62v-.51h-.21v-.15h0a.32.32,0,0,0,.13-.27c0-.51-.34-.6-.84-.6h-.22a.14.14,0,0,0,.05-.11.26.26,0,0,0-.07-.15h.19c.21,0,.31,0,.31-.22v-.17l0,0a.54.54,0,0,0,.18-.46c0-.3-.05-2.09-.1-4s-.09-3.77-.09-4.08a.57.57,0,0,0-.21-.47v-.24c0-.18,0-.58-.64-.58h.11V12.86s0,0,0,0v-.08s0,0,0-.05,0,0,0-.08l0,0s0-.05,0-.08,0,0,0,0,0,0,0-.07,0,0,0,0a.7.7,0,0,0-.06-.09h0a.71.71,0,0,0-.07-.09v0a.23.23,0,0,0-.07-.07v0s0,0-.07-.05v0s-.05,0-.07-.07h0s-.05,0-.08-.06h0c-.56-.39-1.36-.6-1.93-1a1.93,1.93,0,0,1-.35-.35v-.06h0a1.6,1.6,0,0,1-.25-.9v0h0s0,0,0,0V4.39h.52L28.74,3a1,1,0,0,0,.61.15c.35,0,.64-.1.64-.23V2.62h0v-.9c0-.13-.29-.24-.64-.24a.86.86,0,0,0-.6.16v0H28.7a9.4,9.4,0,0,1-2.26,0h0a.7.7,0,0,0,0-.13v0h-.83c-.07,0-.69-.23-.69-.54h-.07V.43C24.83.2,24.45,0,24,0s-.87.19-.87.42v.82s-.08.51-.87.78a1.52,1.52,0,0,0,0,.94.82.82,0,0,0,0,.22v8.54a.74.74,0,0,0-.43.61v.3s.37,0,.37.24h.06V20c-.62.1-.62.53-.62,1.18a8.38,8.38,0,0,1-.18,1.21,23.42,23.42,0,0,0-.43,4.28c0,2.52-.24,4.15-.76,5.14a1.14,1.14,0,0,0-.16.65h0a1.67,1.67,0,0,0,0,.31v.34a.36.36,0,0,0,.11.25l.11.05a.54.54,0,0,0,.29.42l0,.08h0c0,.05-.11,1.72-.24,3.69l-.61.58a15.94,15.94,0,0,1-4.31-1A22.1,22.1,0,0,1,6.22,31h0c-.11-.09-.21,0-.48.09s-.39.17-.68.32c-.5.24-1.19.57-2,1L.09,33.87,0,33.94,0,34a22.51,22.51,0,0,0,4.82,4.58,31.57,31.57,0,0,0,13.48,5.47.59.59,0,0,1-.14.5v0c-.66,0-1.31,0-1.45.32h0a6.18,6.18,0,0,0-1.37.31v.2h.53a.48.48,0,0,1,.49,0v.09h.32c.07.07.23.12,0,.28,0,0,0,0,0,.12a1.54,1.54,0,0,0-.79,1.41c0,.36,0,.69-.08,1,0,.6-.09,1.19-.09,1.77v.32a1.3,1.3,0,0,0,.61,1.11,6.33,6.33,0,0,1-1.77.76A49.34,49.34,0,0,1,8.8,54.07c-1.39.21-1.85.11-1.63,1.78A2.53,2.53,0,0,0,9.66,58c.71,0,3.76-1.18,5.06-1.53a3.93,3.93,0,0,1,2.54-.18,4.84,4.84,0,0,0,1.76.32l0,.11.58.24c-.1.3-.29.94-.39,1.29,0,.09-.06.17-.08.24-.58.08-1,.89-1.57,2.12-.18.38-.39.8-.63,1.25C16,63.74,9.29,75,8.26,76.39a1.72,1.72,0,0,0-.4,1c0,.62.66,1,1.88,1.07,2.06.09,9.19,1.33,9.9,1.46a1.69,1.69,0,0,0,1,0Zm5.64-44.34h0V34h0v1.59Zm-1-1.79h0s0,0,0-.06Zm.35-13.57h0v.93h0a4.75,4.75,0,0,1,.3,1.61A4.09,4.09,0,0,1,25.73,24a2.14,2.14,0,0,0-.11.51v1.31h0a4.18,4.18,0,0,1,.29,1.43,2.8,2.8,0,0,1-.22,1.09,1.64,1.64,0,0,0-.07.28.29.29,0,0,0-.24-.18c-.1,0-.21-.05-.21-.42V26.35c0-.15,0-.15.06-.16s.26-.11.26-.35v-2a.31.31,0,0,0-.26-.35s-.06,0-.06-.16V21.69c0-.15,0-.15.06-.16a.31.31,0,0,0,.26-.35V20h-.68v-.35h.79ZM25.52,13h.23v5.25l-.1.08-.82-.18V13h.34v0ZM26.2,1.87h0c.37,0,.67.22.67.52v1l-1.36.54V2.39c0-.3.3-.52.69-.52ZM22.6,3.31h0c.22.15.48.29.48.29V9.46s0,0,0,0h0v.44a.25.25,0,0,0-.43.11v1.53h0Zm0,9.57h0V13c0,.1.11.18.24.18a.24.24,0,0,0,.22-.12h0v6.24H22.6v-6.4Zm-6.29,37.6h0a20.52,20.52,0,0,1,.1-2c0-.34.05-.68.08-1,.05-.9.52-1.07.6-1.1h2.2a.18.18,0,0,0,.08.09.3.3,0,0,0,.11.06c.05,0,.1.07.1.47s-.07,1.4-.1,2c0,.21,0,.39,0,.46a1,1,0,0,1-.76.27c-.77,0-1.2.09-1.78-1,0,0-.21,0-.16.29s.5.72.76.86a8,8,0,0,0,1.33.47l.11.35a1.12,1.12,0,0,0,.47.47v.06H18.28a3.48,3.48,0,0,0-1.34,0,.4.4,0,0,0-.27.11.91.91,0,0,1-.36-.75Z" transform="translate(0.04 -0.01)"/></svg>