<svg id="Layer_1" data-name="Layer 1" xmlns="http://www.w3.org/2000/svg" viewBox="0 0 29.94 79.98"><defs><style>.cls-1{fill:#5f5f5f;}</style></defs><title>sniper</title><path class="cls-1" d="M20,0h-3.2l-.59.28V1.66l.52.33V28.46h0c-1-.06-4.83,0-4.83,0v2.72a.9.9,0,0,0-.28,0c-.42,0-.75.23-.75.51s.33.49.75.49a1.14,1.14,0,0,0,.28,0v5.42l0,4.73L9.6,46.49H5.86L4.61,52.76H8.49l0,.34-2,.14v.26l2.05-.12v.25s-1.77.4-1.79,1l0,1.84a1.46,1.46,0,0,0,1.37,1.62s.23.4-.71.5a44.74,44.74,0,0,1-6.59.61c-1.22,0-.52,2.46-.52,2.46a2.68,2.68,0,0,1,1.42,2.09c.07,1.21,0,1.49.54,1.5a.37.37,0,0,1,.07.27s-.36,0-.19.39,4.19,2.58,4.19,3.33,0,3.24,0,3.24,0,.07-.07.07H5s0,.22-.16.25v1.69l-.59.52H2.58s-.3,0-.28.37.09.7-.24.7l0,.09,0,.69v1.49s-.91,1.1-.87,1.47c0,.07.05.11.12.11h0s4.37-.2,9.36-.3l3-.05s1.72,0,3.25,0a2.83,2.83,0,0,0,.59,0c.68-.09.82-.24.87-.3h0v0h0a7.83,7.83,0,0,1-.19-.94.27.27,0,0,0,0-.11,11,11,0,0,1,0-2.15h-.29a1.16,1.16,0,0,1-.37.09V76s1.36-.46,1.36-1V72.16l0-5s.07-.54-.68-.54H16.71V63.85h-.35V62.4s-.31,0-.26-.14a.37.37,0,0,1,.26-.19v-.13c.06,0,.14,0,.14-.07V58.59h-.29l.15-.37h.8s.3,0,.3-.16h2.36V55.94a.83.83,0,0,1-.21.07.55.55,0,0,0,.32-.17v0h.4v-.09H21v-.77h-.56v-.37H21l0-.31h-.52V54h2.73v.79h0l-.49.69h0l0,.51h.14v1h0c-.22,0-.19.14-.19.14v3.29l.16,0v.42c-.19.07-.33.2-.33.34s.19.33.47.38a10.84,10.84,0,0,0,2.38.21A6.33,6.33,0,0,0,28,61.48a.31.31,0,0,0,.17-.25c0-.18-.21-.33-.5-.38v-.4l.19,0V57.14c0-.09-.09-.14-.19-.16V56H28v-.51h0l-.66-.69h0v-.94l.38-.2v-1H27.3V50.43a.84.84,0,0,0,.19-.09h1.72a.89.89,0,0,0,.78,0V48.26a1.09,1.09,0,0,0-.78,0H28.5V47.08h-.82V45.93H27.3v-.78h0l1.37-2.9V38H21.8v4.27l1.36,2.9h0v.78H20.62l0-.18H21v-.2h-.4v-.47h.5V41.94h-1V38.3a5.66,5.66,0,0,1-.56.13,5.66,5.66,0,0,0,.56-.13l-.05-36V2l.57-.38V.55ZM27.3,47.3h0l.14-.06v.94l-.14,0Zm-4.14,5.39h0l-.73,0,0-5.34h.75v.78H23s-.35,0-.35.14,0,1.64,0,1.64v.39s-.05.13.28.13h.17ZM12,63.78h-.26A3.65,3.65,0,0,1,9.1,65a4.69,4.69,0,0,1-.87,0,5.16,5.16,0,0,1-1.15-.38,2.29,2.29,0,0,1-.49-.36.42.42,0,0,0-.26,0L6.25,64s-1.12-1.9,1.58-2.86,4.15-.31,4.33.67c.05.13.15.16.38.16v.29s-.59,0-.59.19v1.29Zm7.56-25.34Zm-1.86,7.11h0v0Zm2.28,2h0l0-2.56v.31ZM19.61,56h0l-.12,0h0l.12,0Zm-2.15,1.93h0v0ZM9.53,54h0c1,0,1.86.45,1.86,1l0,1.19a3.12,3.12,0,0,1-3.29-.36C8,55.87,8,56,8,56c.4.62,1.55.74,2.36.7a1.79,1.79,0,0,0,1-.25v.32c0,.56-.85,1-1.88,1H9.25c-1,0-1.87-.46-1.87-1V55.05c0-.56.83-1,1.87-1Z" transform="translate(-0.05 0)"/></svg>