<svg id="Layer_1" data-name="Layer 1" xmlns="http://www.w3.org/2000/svg" viewBox="0 0 29.99 10.01"><defs><style>.cls-1{fill:#fff;}.cls-2{fill:#ccaa4b;}</style></defs><title>Bullet</title><path class="cls-1" d="M6.21-13.2" transform="translate(-0.01 0.01)"/><path class="cls-2" d="M7.15,5.05a35.07,35.07,0,0,0-.36-5C5.7.38,0,2.28,0,4.93s5.64,4.64,6.76,5A34.93,34.93,0,0,0,7.15,5.05Z" transform="translate(-0.01 0.01)"/><path class="cls-2" d="M29,0H8.13a25.88,25.88,0,0,1,.49,5A26,26,0,0,1,8.11,10H29c.53,0,1-1.07,1-2.39V2.38C30,1.06,29.57,0,29,0Z" transform="translate(-0.01 0.01)"/></svg>